<svg width="24" height="24" viewBox="0 0 24 24" fill="none" xmlns="http://www.w3.org/2000/svg">
<path d="M5.28618 22.2824C7.10109 22.2824 8.57237 20.8112 8.57237 18.9963C8.57237 17.1814 7.10109 15.7101 5.28618 15.7101C3.47128 15.7101 2 17.1814 2 18.9963C2 20.8112 3.47128 22.2824 5.28618 22.2824Z" fill="currentColor"/>
<path d="M8.5684 15.7061L5.28223 15.7101L5.28618 18.9963L8.57236 18.9923L8.5684 15.7061Z" fill="currentColor"/>
<path d="M17.6288 12.1566C20.4335 12.1566 22.7071 9.88297 22.7071 7.0783C22.7071 4.27364 20.4335 2 17.6288 2C14.8242 2 12.5505 4.27364 12.5505 7.0783C12.5505 9.88297 14.8242 12.1566 17.6288 12.1566Z" fill="currentColor"/>
<path d="M12.5567 12.1617L17.6349 12.1566L17.6299 7.07831L12.5515 7.08339L12.5567 12.1617Z" fill="currentColor"/>
<path d="M6.65941 13.8773C8.75919 13.8773 10.4614 12.1751 10.4614 10.0754C10.4614 7.97559 8.75919 6.27338 6.65941 6.27338C4.55963 6.27338 2.85742 7.97559 2.85742 10.0754C2.85742 12.1751 4.55963 13.8773 6.65941 13.8773Z" fill="currentColor"/>
<path d="M10.4614 10.0716L6.65942 10.0754L6.66323 13.8773L10.4652 13.8736L10.4614 10.0716Z" fill="currentColor"/>
<mask id="mask0_38_180" style="mask-type:luminance" maskUnits="userSpaceOnUse" x="10" y="13" width="8" height="10">
<path d="M17.874 13.7857H10.6786V22.7857H17.874V13.7857Z" fill="white"/>
</mask>
<g mask="url(#mask0_38_180)">
<path d="M17.072 16.9241C16.8699 16.6437 16.4052 16.0671 15.6914 15.2106C15.3816 14.8391 15.1157 14.5237 14.9849 14.3689C14.9127 14.2835 14.8509 14.2104 14.802 14.1527L14.7241 14.0609L14.6819 14.0111L14.6737 13.999L14.67 13.9974L14.4898 13.7857L14.2615 13.9688C13.6785 14.4358 13.2011 15.0377 12.8812 15.7086C12.685 16.1077 12.5569 16.498 12.4898 16.8999C12.4722 16.9903 12.4571 17.0832 12.4446 17.1764C12.3662 17.17 12.2865 17.1659 12.2075 17.1641C12.2009 17.1636 12.1943 17.1634 12.1854 17.1632C11.8961 17.1531 11.6084 17.1876 11.3305 17.2659L11.2115 17.2993L11.1503 17.4066C10.8635 17.9096 10.7011 18.4823 10.6808 19.0626C10.6546 19.8161 10.8598 20.5454 11.2745 21.1718C11.6803 21.7844 12.2534 22.2527 12.9321 22.5261L13.0205 22.5617L13.0472 22.5711L13.0483 22.5706C13.4018 22.6989 13.7728 22.7707 14.1512 22.7836C14.1941 22.7853 14.2368 22.786 14.2795 22.786C14.757 22.786 15.2219 22.6926 15.6631 22.5078L15.6663 22.5092L15.7837 22.4548C16.3787 22.1797 16.8879 21.7472 17.2563 21.204C17.6351 20.6452 17.8479 19.9914 17.8717 19.3135C17.8999 18.5031 17.6307 17.6993 17.0718 16.9243L17.072 16.9241ZM14.4157 19.4349C14.5387 19.9015 14.5145 20.3497 14.3442 20.7692C13.9185 20.349 13.6064 19.8871 13.4159 19.3948C13.212 18.8682 13.0894 18.3672 13.0506 17.9039C13.2308 17.9631 13.3963 18.0411 13.5438 18.1373C13.9681 18.4138 14.2615 18.8504 14.4157 19.4352V19.4349ZM14.4933 21.6933C14.6741 21.831 14.8643 21.96 15.0605 22.0787C14.7716 22.1573 14.4737 22.1918 14.1722 22.181C14.1256 22.1794 14.0791 22.1767 14.0322 22.1728C14.204 22.0248 14.3583 21.8643 14.4931 21.6933H14.4933ZM14.9984 19.2813C14.8047 18.5474 14.4259 17.9925 13.8726 17.6322C13.6299 17.4742 13.3534 17.3543 13.0497 17.276C13.054 17.2255 13.0595 17.1753 13.0659 17.1259C13.0714 17.0837 13.0771 17.0449 13.0832 17.0086C13.1333 16.7503 13.2077 16.4948 13.3041 16.2493C13.341 16.1552 13.3815 16.0619 13.4244 15.9717L13.426 15.9685C13.4922 15.8344 13.5669 15.699 13.6548 15.5542L13.6893 15.4974L13.6881 15.4967C13.8923 15.1777 14.1368 14.8868 14.4165 14.6304L14.5245 14.758C14.7764 15.0564 15.0132 15.3387 15.2285 15.5969C15.7129 16.1778 16.3408 16.9408 16.5831 17.2771C17.0622 17.9411 17.293 18.6191 17.2695 19.2927C17.2512 19.8159 17.0964 20.326 16.8215 20.7676C16.5612 21.1861 16.1985 21.5364 15.7713 21.783C15.533 21.6641 15.1868 21.4684 14.8191 21.1836C15.1155 20.5929 15.176 19.9533 14.9986 19.2813H14.9984ZM14.0327 21.3054C13.761 21.6574 13.4376 21.8865 13.249 22.0015C13.2184 21.9904 13.1878 21.9787 13.1577 21.9664L13.1335 21.9568C12.5747 21.726 12.1034 21.3357 11.7705 20.8279C11.4303 20.3088 11.2617 19.7055 11.2834 19.0831C11.299 18.6369 11.4102 18.2106 11.6143 17.8158C11.7328 17.7895 11.8536 17.7731 11.9744 17.7669L12.0057 17.7662C12.0667 17.7648 12.1274 17.7648 12.1852 17.7662C12.2701 17.7701 12.3553 17.779 12.4391 17.7925C12.4665 18.3597 12.6058 18.9716 12.8535 19.612C13.0922 20.2282 13.4886 20.7975 14.0325 21.3051L14.0327 21.3054Z" fill="currentColor"/>
</g>
</svg>
