<svg width="256" height="256" viewBox="0 0 256 256" fill="none" xmlns="http://www.w3.org/2000/svg">
<path d="M165.86 239.159C196.587 239.159 221.496 214.25 221.496 183.523C221.496 152.797 196.587 127.888 165.86 127.888C135.134 127.888 110.225 152.797 110.225 183.523C110.225 214.25 135.134 239.159 165.86 239.159Z" fill="#808080"/>
<path d="M110.225 183.59L165.861 183.523L165.794 127.888L110.158 127.955L110.225 183.59Z" fill="#808080"/>
<path d="M61.671 206.303C78.6102 206.303 92.3421 192.571 92.3421 175.632C92.3421 158.693 78.6102 144.961 61.671 144.961C44.7319 144.961 31 158.693 31 175.632C31 192.571 44.7319 206.303 61.671 206.303Z" fill="#F54A42"/>
<path d="M92.3053 144.924L61.6343 144.961L61.6712 175.632L92.3422 175.595L92.3053 144.924Z" fill="#F54A42"/>
<path d="M176.868 111.795C203.045 111.795 224.266 90.5744 224.266 64.3975C224.266 38.2206 203.045 17 176.868 17C150.692 17 129.471 38.2206 129.471 64.3975C129.471 90.5744 150.692 111.795 176.868 111.795Z" fill="#F54A42"/>
<path d="M129.529 111.842L176.926 111.795L176.879 64.3975L129.481 64.4449L129.529 111.842Z" fill="#F54A42"/>
<path d="M74.4874 127.855C94.0854 127.855 109.973 111.968 109.973 92.3702C109.973 72.7722 94.0854 56.8849 74.4874 56.8849C54.8895 56.8849 39.0022 72.7722 39.0022 92.3702C39.0022 111.968 54.8895 127.855 74.4874 127.855Z" fill="#808080"/>
<path d="M109.973 92.3347L74.4875 92.3702L74.523 127.855L110.008 127.82L109.973 92.3347Z" fill="#808080"/>
<circle cx="166" cy="184" r="51" fill="white"/>
<path d="M151.825 223.937C155.308 225.342 159.087 226.176 163.054 226.314C168.424 226.502 173.53 225.39 178.095 223.276C172.621 221.12 167.663 217.967 163.432 214.048C160.689 218.45 156.633 221.926 151.825 223.937Z" fill="#FF9100"/>
<path d="M163.43 214.049C153.772 205.095 147.913 192.135 148.408 177.92C148.424 177.459 148.449 176.998 148.477 176.536C146.747 176.088 144.942 175.814 143.083 175.749C140.423 175.656 137.847 175.987 135.415 176.673C132.837 181.201 131.281 186.395 131.087 191.959C130.587 206.318 139.255 218.864 151.823 223.938C156.631 221.928 160.688 218.455 163.43 214.049Z" fill="#FFC400"/>
<path d="M163.431 214.048C165.677 210.446 167.038 206.223 167.197 201.673C167.614 189.705 159.587 179.409 148.478 176.536C148.45 176.997 148.425 177.458 148.409 177.92C147.914 192.135 153.773 205.095 163.431 214.048Z" fill="#FF9100"/>
<path d="M165.955 142.893C159.628 147.974 154.632 154.674 151.609 162.392C149.878 166.813 148.791 171.561 148.473 176.539C159.582 179.412 167.609 189.708 167.192 201.676C167.033 206.226 165.668 210.445 163.426 214.052C167.657 217.975 172.615 221.124 178.089 223.279C189.076 218.188 196.872 207.233 197.323 194.276C197.615 185.881 194.398 178.398 189.851 172.082C185.049 165.403 165.955 142.893 165.955 142.893Z" fill="#DD2C00"/>
</svg>
